<svg width="71" height="71" viewBox="0 0 71 71" fill="none" xmlns="http://www.w3.org/2000/svg"><g clip-path="url(#prefix__prefix__clip0_607_6248)" fill="red"><path d="M44.2 71h-3.9c-1.4 0-2.5-1-2.7-2.3l-.5-3.4c-4.2 1-8.7 1-12.9.2l-.5 3.3c-.2 1.4-1.4 2.3-2.7 2.3h-3.9c-1.4 0-2.5-1-2.7-2.3l-1.2-8.1c-3.5-2.5-6.1-5.8-7.7-9.5H4c-2.2 0-4-1.8-4-4v-7.4c0-2.2 1.8-4 4-4h1.1c1.2-3.1 3.2-6 5.8-8.3.1-2.2-.5-5.4-3.4-8.9-.5-.6-.6-1.4-.2-2.1.4-.8 1.2-1.3 2.1-1.3h.2c2.8.2 9.7 2 13.5 5.9 2.3-.6 4.7-.9 7.2-.9 12.5 0 23.4 7.7 26 18.3.4 1.5.5 3.1.5 4.7 0 6.4-3.1 12.5-8.5 16.9L47 68.9c-.3 1.1-1.4 2.1-2.8 2.1zm-5.5-8.3l.8 5.6c.1.4.4.6.7.6h3.9c.4 0 .7-.3.7-.6l1.4-9.6.3-.2c5.1-4 8-9.6 8-15.5 0-1.4-.2-2.8-.5-4.2C51.7 29.1 41.6 22 30 22c-2.5 0-4.9.3-7.2.9l-.6.2-.2-.5c-3.4-3.8-10.1-5.5-12.6-5.7-.1 0-.3.1-.3.2 3.4 4.2 4 8.1 3.8 10.6v.4l-.4.4c-2.7 2.4-4.7 5.3-5.8 8.5l-.2.7H4c-1.1 0-2 .9-2 2v7.4c0 1.1.9 2 2 2h2.7l.3.6c1.5 3.7 4.1 7 7.6 9.5l.3.2 1.3 8.9c.1.4.4.6.7.6h3.9c.4 0 .7-.3.7-.6l.8-5.4 1.1.3c4.6 1.1 9.5 1 14.1-.2l1.2-.3z"/><path d="M14.8 37.9a2.5 2.5 0 100-5 2.5 2.5 0 000 5zm48.4 7.7c-1.2 0-2.5-.8-3.2-2.1-1-1.8-1-4.5 1.1-7-1.5.2-3.1 1.3-4.7 3.3-.3.4-1 .5-1.4.2-.4-.3-.5-1-.2-1.4 2.6-3.2 5.3-4.5 8-3.9.1 0 .2.1.4.1 3.2-1.9 5.7-.4 6.7.8.1.1 2.1 2.7.6 6.1-.2.5-.8.7-1.3.5-.5-.2-.7-.8-.5-1.3 1.1-2.3-.2-4-.3-4.1-.1-.2-1.3-1.4-3.2-.8.4.4.8.9 1.1 1.5.9 1.6 1.1 3.5.5 5-.9 2.5-2.4 3-3.2 3.1h-.4zm.1-8.4c-2.2 1.9-2.4 4.1-1.6 5.4.4.7 1 1.1 1.6 1.1.6-.1 1.1-.7 1.5-1.8.4-1 .2-2.2-.4-3.3-.3-.6-.7-1.1-1.1-1.4zm-22.8-7.6c-.2 0-.3 0-.5-.1-4.2-2.4-9.6-2.3-13.1-1.3-.5.2-1.1-.1-1.2-.7-.2-.5.1-1.1.7-1.2 4.8-1.5 10.5-.9 14.7 1.4.5.3.7.9.4 1.4-.3.3-.6.5-1 .5zM32 18c-5 0-9-4-9-9s4-9 9-9 9 4 9 9-4 9-9 9zm0-16c-3.9 0-7 3.1-7 7s3.1 7 7 7 7-3.1 7-7-3.1-7-7-7z"/></g><defs><clipPath id="prefix__prefix__clip0_607_6248"><path fill="#fff" d="M0 0h71v71H0z"/></clipPath></defs></svg>