<svg width="71" height="71" viewBox="0 0 71 71" fill="none" xmlns="http://www.w3.org/2000/svg"><g clip-path="url(#prefix__prefix__clip0_607_6254)" fill="red"><path d="M51.7 28.3c-1.3 0-2.5.3-3.6.8l-12.5 6.1-12.6-6c-1.1-.6-2.4-.8-3.6-.8-3.7 0-7.8 2.6-8.2 7.3v1.4c.4 4.7 4.5 7.3 8.2 7.3 1.3 0 2.5-.3 3.6-.8l12.5-6.1 12.5 6c1.1.6 2.4.8 3.6.8 3.7 0 7.8-2.6 8.2-7.3v-1.4c-.3-4.7-4.4-7.3-8.1-7.3zM22.1 41.7c-.9.4-1.8.6-2.8.6-2.8 0-5.9-1.9-6.2-5.5v-1.1c.3-3.5 3.4-5.5 6.2-5.5 1 0 1.9.2 2.8.6l11.1 5.4-11.1 5.5zm35.8-4.8c-.3 3.5-3.4 5.5-6.2 5.5-1 0-1.9-.2-2.8-.6l-11.1-5.4L48.9 31c.9-.4 1.8-.6 2.8-.6 2.8 0 5.9 1.9 6.2 5.5v1z"/><path d="M70.8 46.5l-1.3-4.2c-.4-1.2-.6-2.4-.7-3.6l.2-.3c1-1.8 1-4 0-5.8l-.1-.1c.2-1 .4-2.1.7-3.1l1-3.1c.4-1.3.2-2.7-.6-3.8-.7-1-1.8-1.6-3.1-1.6h-1.1c-.1-1.9-1.2-3.7-2.9-4.6l-4.4-2.5c-.6-.3-1-.8-1.4-1.4L54.6 8c-1-1.8-2.9-2.9-5-2.9h-5.1c-.7 0-1.3-.2-1.9-.5l-4.4-2.5c-1.8-1-4-1-5.8 0l-4.2 2.4c-.6.3-1.2.5-1.9.5h-5.1c-2.1 0-4 1.1-5 2.9l-2.5 4.4c-.3.6-.8 1-1.4 1.4l-4.4 2.5c-1.7 1-2.7 2.7-2.9 4.6H3.9c-1.2 0-2.3.6-3 1.6-.8 1.1-1 2.5-.6 3.8l1.1 3.6c.3.9.5 1.8.7 2.8-1 1.8-1 4 0 5.8l.2.3c-.2 1.4-.4 2.7-.8 4L.3 46.4c-.4 1.3-.2 2.7.6 3.8.7 1 1.8 1.6 3 1.6h1.6C6 53 6.8 54.1 8 54.7l4.4 2.5c.6.3 1.1.8 1.4 1.4l2.5 4.4c1 1.8 2.9 2.9 5 2.9h5.1c.7 0 1.3.2 1.9.5l4.4 2.5c.9.5 1.9.8 2.9.8s2-.3 2.9-.8l4.4-2.5c.6-.3 1.2-.5 1.9-.5h5.1c2.1 0 4-1.1 5-2.9l2.5-4.4c.3-.6.8-1 1.4-1.4l4.4-2.5c1.2-.7 2-1.7 2.5-2.9h1.6c1.2 0 2.3-.6 3-1.6.7-1 .9-2.4.5-3.7zM8.9 18l4.4-2.5c.9-.5 1.6-1.2 2.1-2.1L17.9 9c.7-1.2 1.9-1.9 3.3-1.9h5.1c1 0 2-.3 2.9-.8l4.4-2.5c1.1-.7 2.6-.7 3.8 0l4.4 2.5c.9.5 1.9.8 2.9.8h5.1c1.3 0 2.6.7 3.3 1.9l2.5 4.4c.5.9 1.2 1.6 2.1 2.1l4.4 2.5c1.1.6 1.7 1.7 1.9 2.9h-5.7C53.4 13.4 45 8.5 35.5 8.5s-17.9 4.9-22.7 12.4H7.1c.1-1.2.8-2.3 1.8-2.9zm46.9 2.9H15.2c4.6-6.3 12-10.4 20.3-10.4s15.7 4.1 20.3 10.4zM62.1 53l-4.4 2.5c-.9.5-1.6 1.2-2.1 2.1L53 62.1c-.7 1.2-1.9 1.9-3.3 1.9h-5.1c-1 0-2 .3-2.9.8l-4.4 2.5c-1.1.7-2.6.7-3.8 0l-4.4-2.5c-.9-.5-1.9-.8-2.9-.8h-5.1c-1.3 0-2.6-.7-3.3-1.9l-2.5-4.4c-.5-.9-1.2-1.6-2.1-2.1l-4.4-2.5c-.5-.3-.9-.7-1.3-1.2H14c4.9 6.4 12.7 10.6 21.5 10.6S52.1 58.3 57 51.8h6.3c-.3.5-.7.9-1.2 1.2zm-45.5-1.2h37.9c-4.7 5.3-11.4 8.7-19 8.7s-14.3-3.4-18.9-8.7zm52-2.8c-.4.5-.9.8-1.4.8H3.9c-.6 0-1.1-.3-1.4-.8-.4-.6-.5-1.3-.3-2l1.2-3.7c1.4-4.5 1.4-9.5 0-14.1l-1.1-3.6c-.2-.7-.1-1.4.3-2 .4-.5.9-.8 1.4-.8h63c.6 0 1.1.3 1.4.8.4.6.5 1.3.3 2l-1 3.1c-1.5 4.5-1.5 9.5-.1 14.1l1.3 4.2c.2.7.1 1.5-.3 2z"/></g><defs><clipPath id="prefix__prefix__clip0_607_6254"><path fill="#fff" d="M0 0h71v71H0z"/></clipPath></defs></svg>