<svg width="71" height="71" viewBox="0 0 71 71" fill="none" xmlns="http://www.w3.org/2000/svg"><path d="M68.2 60.8L53.5 46.1c.5-.7.8-1.5.8-2.4 0-1.1-.4-2.2-1.2-2.9l-1.2-1.2c-.8-.8-1.8-1.2-2.9-1.2-1.1 0-2.2.4-2.9 1.2l-.3.3-3.5-3.5 10-10c1 .2 2 .4 3 .4 3.5 0 6.9-1.4 9.4-3.9s3.9-5.8 3.9-9.4c0-3.6-1.4-6.9-3.9-9.4l-.2-.2-1.2-1.1-4 10.5-4.5.7-2.9-3.6 4-10.4-1.6.1c-3.2.2-6.1 1.6-8.3 3.8-3.8 3.8-4.9 9.6-2.8 14.6l-9.3 9.3-14.5-14.3L18 6.2l-11.3-5L.9 7l5.2 11.4 7 1.2 14.5 14.5-10 10c-1-.2-2-.4-3-.4-3.5 0-6.9 1.4-9.4 3.9S1.3 53.4 1.3 57c0 3.5 1.4 6.9 3.9 9.4l.2.2 1.2 1.1 4-10.5 4.5-.7 2.9 3.6-4 10.4 1.6-.1c3.2-.2 6.1-1.6 8.3-3.8 3.8-3.8 4.9-9.6 2.8-14.6l9.3-9.3 3.5 3.5-.3.3c-1.6 1.6-1.6 4.2 0 5.9l1.2 1.2c.8.8 1.8 1.2 2.9 1.2.9 0 1.7-.3 2.4-.8l14.7 14.7c.6.6 1.5 1 2.4 1 .9 0 1.7-.3 2.4-1l3.1-3.1c1.2-1.4 1.2-3.5-.1-4.8zM13.9 17.7l-6.6-1.1-4.2-9.2L7 3.5l9.1 4.1 1.4 6.9 14.8 14.7-1.7 1.8-1.7 1.7-15-15zm10.7 34.4c2.1 4.3 1.2 9.5-2.2 12.9-1.5 1.5-3.4 2.5-5.5 3l3.2-8.4-4.3-5.4L9 55.3l-3.4 8.8c-1.6-2-2.5-4.5-2.5-7.1 0-3 1.2-5.8 3.3-8 2.1-2.1 5-3.3 8-3.3 1 0 2.1.1 3.1.4l.6.2 10.8-10.8 3.1-3.1 13.5-13.5-.3-.6C43.1 14 44 8.8 47.4 5.4c1.5-1.5 3.4-2.5 5.5-3l-3.3 8.3 4.3 5.4 6.8-1.1 3.4-8.7c1.6 2 2.5 4.5 2.5 7.1 0 3-1.2 5.8-3.3 8-2.1 2.1-5 3.3-8 3.3-1 0-2.1-.1-3.1-.4l-.6-.2-27.4 27.4.4.6zm12.8-10.9l2.1-2.1 1.4-1.4 3.5 3.5-3.4 3.4-3.6-3.4zm4.4 10.9l-1.2-1.2c-.8-.8-.8-2.2 0-3l.3-.3 6.3-6.3.3-.3c.4-.4.9-.6 1.5-.6s1.1.2 1.5.6l1.2 1.2c.4.4.6.9.6 1.5s-.2 1.1-.6 1.5l-6.9 6.9c-.8.8-2.2.8-3 0zm25 12l-3.1 3.1c-.5.5-1.4.5-1.9 0L47.2 52.5l4.9-5 14.7 14.7c.5.5.5 1.4 0 1.9z" fill="red"/></svg>